<svg width="1621" height="327" viewBox="0 0 1621 327" fill="none" xmlns="http://www.w3.org/2000/svg">
<path d="M337 0H610V53H337V0Z" fill="white"/>
<path d="M500 0V300H447V0H500Z" fill="white"/>
<path d="M684 122H950V175H684V122Z" fill="white"/>
<path d="M730 0V300H677V0H730Z" fill="white"/>
<path d="M950 0V300H897V0H950Z" fill="white"/>
<path d="M1446.61 300C1391.04 300 1346 255.228 1346 200V100C1346 44.7715 1391.04 8.44116e-06 1446.61 7.15256e-06H1621V53.3333H1446.61C1420.68 53.3333 1399.66 74.2267 1399.66 100V200C1399.66 225.773 1420.68 246.667 1446.61 246.667H1621V300H1446.61Z" fill="white"/>
<path d="M0 0H269V53H0V0Z" fill="white"/>
<path d="M0 123H269V176H0V123Z" fill="white"/>
<path d="M0 247H269V300H0V247Z" fill="white"/>
<path d="M1164.55 160.447L1211.26 134.546L1302.33 300.102L1238.9 300.103L1164.55 160.447Z" fill="white"/>
<path d="M1206.06 0C1253.52 0 1292 39.3989 1292 88C1292 136.601 1253.52 176 1206.06 176H1173V123H1206.06C1224.31 123 1239.11 106.693 1239.11 88C1239.11 69.3073 1224.26 53.6092 1206 53.6092H1173V0H1206.06Z" fill="white"/>
<path d="M1019 123H1186V176H1019V123Z" fill="white"/>
<path d="M1019 0H1178V53H1019V0Z" fill="white"/>
<path d="M1019 123H1072V300H1019V123Z" fill="white"/>
</svg>
