<svg width="1612" height="334" viewBox="0 0 1612 334" fill="none" xmlns="http://www.w3.org/2000/svg">
<path d="M316 0H596V62H316V0Z" fill="black"/>
<path d="M487 6V307H425V6H487Z" fill="black"/>
<path d="M650 122H937V184H650V122Z" fill="black"/>
<path d="M712 0V307H650V0H712Z" fill="black"/>
<path d="M937 0V307H875V0H937Z" fill="black"/>
<path d="M0 0H269V62H0V0Z" fill="black"/>
<path d="M0 122H269V184H0V122Z" fill="black"/>
<path d="M0 245H269V307H0V245Z" fill="black"/>
<path d="M1434.44 307C1377.86 307 1332 261.184 1332 204.667V102.333C1332 45.8162 1377.86 8.41829e-07 1434.44 -4.76837e-07H1612V61.4H1434.44C1411.81 61.4 1393.46 79.7265 1393.46 102.333V204.667C1393.46 227.274 1411.81 245.6 1434.44 245.6H1612V307H1434.44Z" fill="black"/>
<path d="M1138.06 163.322L1189.2 139.454L1281.26 306.528L1216.48 306.528L1138.06 163.322Z" fill="black"/>
<path d="M1192.75 0C1243.7 3.95145e-06 1285 41.1898 1285 92C1285 142.81 1243.7 184 1192.75 184H1162V122H1193C1209.98 122 1223.5 108.937 1223.5 92C1223.5 75.0633 1209.98 62 1193 62H1162V0H1192.75Z" fill="black"/>
<path d="M1005 122H1203V184H1005V122Z" fill="black"/>
<path d="M1005 0H1169V62H1005V0Z" fill="black"/>
<path d="M1005 122H1067V307H1005V122Z" fill="black"/>
</svg>
